# xmcd
#
# Track frame offsets:
#	150
#	19331
#	39050
#	59131
#	76813
#	96849
#	111260
#	130470
#	147013
#	159579
#	172540
#	184844
#
# Disc length: 2645 seconds
#
# Revision: 0
# Processed by: cddbd v1.5.2PL0 Copyright (c) Steve Scherf et al.
# Submitted via: EasyCDDAExtractor 11.9.9.666
#
DISCID=970a530c
DTITLE=Artur Soitu - Kaksi tiet‰ (Ven‰j‰nkielinen)
DYEAR=2008
DGENRE=Pop
TTITLE0=Uusi testamentti
TTITLE1=H‰n teki kaiken
TTITLE2=Nyt olen onnellinen
TTITLE3=K‰‰ntyk‰‰
TTITLE4=Kuka voisi ymm‰rt‰‰?
TTITLE5=Vain kaksi tiet‰
TTITLE6=Miksi?
TTITLE7=ƒl‰ mene pois
TTITLE8=Uutiset
TTITLE9=Ihailen tekojasi
TTITLE10=Tyhj‰ on paikkasi
TTITLE11=Oletko valmis
EXTD=
EXTT0=
EXTT1=
EXTT2=
EXTT3=
EXTT4=
EXTT5=
EXTT6=
EXTT7=
EXTT8=
EXTT9=
EXTT10=
EXTT11=
PLAYORDER=
